<svg width="1440" height="823" viewBox="0 0 1440 823" fill="none" xmlns="http://www.w3.org/2000/svg">
<g opacity="0.8" filter="url(#filter0_f_15_944)">
<g filter="url(#filter1_f_15_944)">
<path fill-rule="evenodd" clip-rule="evenodd" d="M1210.28 573.748C1212.49 573.982 1214.12 576.268 1213.92 578.854C1213.16 588.714 1215.67 607.479 1227.95 622.055C1240.06 636.43 1262.45 647.602 1302.97 640.776C1307.66 639.986 1312.29 639.128 1316.81 638.289C1323.49 637.05 1329.95 635.853 1336.05 634.978C1346.41 633.491 1356.33 632.826 1365.91 634.321C1385.44 637.367 1402.76 649.262 1419.83 678.634C1421.08 680.781 1420.61 683.706 1418.77 685.167C1416.94 686.627 1414.44 686.071 1413.19 683.924C1397.13 656.289 1381.67 646.265 1364.85 643.641C1356.26 642.301 1347.12 642.863 1337.03 644.311C1331 645.176 1324.84 646.319 1318.32 647.53C1313.79 648.372 1309.08 649.247 1304.12 650.083C1261.94 657.188 1236.67 645.797 1222.23 628.659C1207.96 611.721 1205 590.021 1205.92 578.008C1206.12 575.421 1208.07 573.514 1210.28 573.748Z" fill="#828282"/>
</g>
<g filter="url(#filter2_f_15_944)">
<path d="M5.241 121.72C22.231 122.22 35.3791 125.608 45.9522 131.021C56.4996 136.421 64.2828 143.732 70.7462 151.832C76.4722 159.008 81.2477 166.92 85.9657 174.738C86.5498 175.705 87.1331 176.672 87.7172 177.635C93.0597 186.447 98.4968 195.054 105.433 202.694C127.452 226.948 165.7 235.197 182.006 236.243C183.798 236.357 185.134 237.605 184.989 239.03C184.845 240.455 183.275 241.517 181.482 241.402C164.145 240.29 123.714 231.675 100.152 205.723C92.8445 197.673 87.1917 188.691 81.8513 179.882C81.2635 178.913 80.6798 177.946 80.0982 176.982L80.098 176.982C75.355 169.126 70.7534 161.504 65.2475 154.604C59.095 146.894 51.9222 140.234 42.4265 135.373C32.9564 130.525 20.9744 127.362 5 126.892L5.241 121.72Z" fill="#2F80ED"/>
</g>
<g filter="url(#filter3_f_15_944)">
<path fill-rule="evenodd" clip-rule="evenodd" d="M1417.75 116.772C1416.74 114.459 1414.32 113.54 1412.35 114.72C1411.33 115.329 1409.59 115.92 1406.88 116.548C1404.99 116.985 1402.86 117.392 1400.45 117.854C1399.46 118.043 1398.42 118.241 1397.33 118.454C1389.97 119.899 1380.82 121.929 1371.16 126.108C1351.67 134.54 1330.38 151.616 1316.51 189.457C1307.62 213.683 1297.83 228.701 1285.82 238.331C1273.77 247.99 1259.02 252.596 1239.57 254.984C1237.37 255.255 1235.77 257.568 1236 260.151C1236.23 262.733 1238.21 264.607 1240.41 264.336C1260.41 261.881 1276.7 257.034 1290.36 246.089C1304.05 235.116 1314.64 218.38 1323.89 193.166C1336.79 157.99 1356.25 142.584 1373.95 134.928C1382.88 131.063 1391.42 129.148 1398.66 127.729C1399.66 127.533 1400.64 127.345 1401.6 127.162C1404.07 126.688 1406.4 126.242 1408.43 125.773C1411.2 125.132 1413.9 124.348 1416 123.097C1417.97 121.917 1418.76 119.085 1417.75 116.772Z" fill="#F2C94C"/>
</g>
<g filter="url(#filter4_f_15_944)">
<path fill-rule="evenodd" clip-rule="evenodd" d="M937.75 625.456C936.742 623.143 934.323 622.224 932.347 623.404C931.327 624.012 929.591 624.603 926.876 625.232C924.985 625.669 922.859 626.076 920.446 626.538C919.458 626.727 918.421 626.925 917.334 627.138C909.967 628.583 900.819 630.613 891.16 634.792C871.674 643.224 850.382 660.3 836.505 698.141C827.621 722.367 817.835 737.385 805.82 747.014C793.768 756.673 779.024 761.28 759.574 763.668C757.368 763.939 755.767 766.252 755.999 768.834C756.23 771.417 758.206 773.291 760.412 773.02C780.411 770.565 796.703 765.718 810.358 754.773C824.05 743.8 834.641 727.064 843.887 701.85C856.787 666.674 876.253 651.268 893.946 643.612C902.877 639.747 911.423 637.832 918.661 636.412C919.656 636.217 920.639 636.029 921.599 635.846C924.074 635.372 926.404 634.926 928.434 634.457C931.201 633.816 933.901 633.032 935.997 631.78C937.973 630.601 938.758 627.769 937.75 625.456Z" fill="#F2C94C"/>
</g>
<g filter="url(#filter5_f_15_944)">
<path d="M337.533 94.1597H354.604V149.404H337.533V94.1597Z" fill="#BEFAB4"/>
</g>
<path d="M1312.58 450.31H1329.65V476.169H1312.58V450.31Z" fill="#EB5757"/>
<g filter="url(#filter6_f_15_944)">
<path d="M477 675.382C477 650.529 497.147 630.382 522 630.382C546.853 630.382 567 650.529 567 675.382V677.145C567 701.998 546.853 722.145 522 722.145C497.147 722.145 477 701.997 477 677.145V675.382Z" fill="#EB5757"/>
</g>
<g filter="url(#filter7_f_15_944)">
<path d="M720 200.993C720 255.803 675.228 300.236 620 300.236C564.772 300.236 520 255.803 520 200.993C520 146.182 564.772 101.75 620 101.75C675.228 101.75 720 146.182 720 200.993Z" fill="#2F80ED"/>
</g>
<g filter="url(#filter8_f_15_944)">
<path d="M293.349 579.606C293.349 590.641 285.706 599.588 276.278 599.588C266.851 599.588 259.208 590.641 259.208 579.606C259.208 568.57 266.851 559.624 276.278 559.624C285.706 559.624 293.349 568.57 293.349 579.606Z" fill="#333333"/>
</g>
<path d="M1055.51 629.561C1055.51 635.728 1051.24 640.727 1045.97 640.727C1040.71 640.727 1036.44 635.728 1036.44 629.561C1036.44 623.394 1040.71 618.395 1045.97 618.395C1051.24 618.395 1055.51 623.394 1055.51 629.561Z" fill="#828282"/>
<path d="M303.509 454.884V447.611H307.87V448.392H304.39V450.85H307.543V451.631H304.39V454.884H303.509ZM309.265 454.884V449.429H310.103V454.884H309.265ZM309.691 448.52C309.528 448.52 309.387 448.464 309.268 448.353C309.152 448.242 309.094 448.108 309.094 447.952C309.094 447.796 309.152 447.662 309.268 447.551C309.387 447.439 309.528 447.384 309.691 447.384C309.854 447.384 309.994 447.439 310.11 447.551C310.228 447.662 310.287 447.796 310.287 447.952C310.287 448.108 310.228 448.242 310.11 448.353C309.994 448.464 309.854 448.52 309.691 448.52ZM312.476 451.602V454.884H311.638V449.429H312.447V450.281H312.518C312.646 450.004 312.84 449.782 313.101 449.614C313.361 449.443 313.697 449.358 314.109 449.358C314.479 449.358 314.802 449.434 315.079 449.585C315.356 449.735 315.571 449.962 315.725 450.267C315.879 450.57 315.956 450.954 315.956 451.418V454.884H315.118V451.475C315.118 451.046 315.007 450.712 314.784 450.473C314.562 450.232 314.256 450.111 313.868 450.111C313.6 450.111 313.361 450.169 313.151 450.285C312.942 450.401 312.778 450.57 312.657 450.793C312.536 451.015 312.476 451.285 312.476 451.602ZM319.547 454.997C319.092 454.997 318.691 454.882 318.343 454.653C317.995 454.421 317.723 454.094 317.526 453.673C317.33 453.249 317.232 452.748 317.232 452.171C317.232 451.598 317.33 451.101 317.526 450.679C317.723 450.258 317.996 449.932 318.347 449.703C318.697 449.473 319.102 449.358 319.561 449.358C319.916 449.358 320.197 449.417 320.403 449.536C320.611 449.652 320.77 449.784 320.879 449.933C320.99 450.08 321.076 450.201 321.138 450.296H321.209V447.611H322.047V454.884H321.237V454.046H321.138C321.076 454.145 320.989 454.271 320.875 454.422C320.762 454.571 320.599 454.705 320.389 454.823C320.178 454.939 319.897 454.997 319.547 454.997ZM319.661 454.244C319.997 454.244 320.281 454.157 320.513 453.982C320.745 453.804 320.921 453.559 321.042 453.247C321.163 452.932 321.223 452.568 321.223 452.156C321.223 451.749 321.164 451.393 321.046 451.088C320.927 450.78 320.752 450.541 320.52 450.37C320.288 450.197 320.002 450.111 319.661 450.111C319.306 450.111 319.01 450.202 318.773 450.384C318.539 450.564 318.362 450.809 318.244 451.119C318.128 451.427 318.07 451.773 318.07 452.156C318.07 452.545 318.129 452.897 318.247 453.215C318.368 453.53 318.546 453.78 318.78 453.967C319.017 454.152 319.31 454.244 319.661 454.244ZM328.883 449.429V450.139H326.056V449.429H328.883ZM326.88 448.122H327.718V453.321C327.718 453.558 327.753 453.735 327.821 453.854C327.892 453.97 327.982 454.048 328.091 454.088C328.202 454.126 328.32 454.145 328.443 454.145C328.535 454.145 328.611 454.14 328.67 454.131C328.729 454.119 328.776 454.11 328.812 454.102L328.982 454.855C328.926 454.877 328.846 454.898 328.744 454.919C328.643 454.943 328.514 454.955 328.357 454.955C328.121 454.955 327.889 454.904 327.661 454.802C327.436 454.7 327.249 454.545 327.1 454.337C326.954 454.128 326.88 453.866 326.88 453.548V448.122ZM330.374 454.884V447.611H331.213V450.296H331.284C331.345 450.201 331.43 450.08 331.539 449.933C331.65 449.784 331.809 449.652 332.015 449.536C332.223 449.417 332.505 449.358 332.86 449.358C333.32 449.358 333.724 449.473 334.075 449.703C334.425 449.932 334.699 450.258 334.895 450.679C335.092 451.101 335.19 451.598 335.19 452.171C335.19 452.748 335.092 453.249 334.895 453.673C334.699 454.094 334.426 454.421 334.078 454.653C333.73 454.882 333.329 454.997 332.874 454.997C332.524 454.997 332.244 454.939 332.033 454.823C331.822 454.705 331.66 454.571 331.546 454.422C331.433 454.271 331.345 454.145 331.284 454.046H331.184V454.884H330.374ZM331.198 452.156C331.198 452.568 331.259 452.932 331.379 453.247C331.5 453.559 331.677 453.804 331.909 453.982C332.141 454.157 332.425 454.244 332.761 454.244C333.111 454.244 333.404 454.152 333.638 453.967C333.875 453.78 334.052 453.53 334.171 453.215C334.291 452.897 334.352 452.545 334.352 452.156C334.352 451.773 334.293 451.427 334.174 451.119C334.058 450.809 333.882 450.564 333.645 450.384C333.411 450.202 333.116 450.111 332.761 450.111C332.42 450.111 332.133 450.197 331.901 450.37C331.669 450.541 331.494 450.78 331.376 451.088C331.258 451.393 331.198 451.749 331.198 452.156ZM338.759 454.997C338.233 454.997 337.78 454.881 337.399 454.649C337.02 454.415 336.727 454.088 336.521 453.669C336.318 453.248 336.216 452.758 336.216 452.199C336.216 451.64 336.318 451.148 336.521 450.722C336.727 450.293 337.014 449.959 337.381 449.72C337.75 449.479 338.181 449.358 338.673 449.358C338.958 449.358 339.238 449.405 339.515 449.5C339.792 449.595 340.044 449.749 340.271 449.962C340.499 450.172 340.68 450.452 340.815 450.8C340.95 451.148 341.017 451.576 341.017 452.085V452.44H336.813V451.716H340.165C340.165 451.408 340.103 451.134 339.98 450.892C339.86 450.651 339.687 450.46 339.462 450.32C339.239 450.181 338.976 450.111 338.673 450.111C338.34 450.111 338.051 450.194 337.807 450.36C337.566 450.523 337.38 450.736 337.249 450.999C337.119 451.262 337.054 451.543 337.054 451.844V452.327C337.054 452.739 337.125 453.088 337.267 453.374C337.412 453.659 337.612 453.875 337.867 454.024C338.123 454.171 338.42 454.244 338.759 454.244C338.979 454.244 339.178 454.214 339.355 454.152C339.535 454.088 339.69 453.994 339.82 453.868C339.951 453.74 340.051 453.582 340.122 453.392L340.932 453.619C340.847 453.894 340.704 454.136 340.502 454.344C340.301 454.55 340.052 454.711 339.757 454.827C339.461 454.94 339.128 454.997 338.759 454.997ZM345.218 454.884V447.611H346.056V450.296H346.127C346.189 450.201 346.274 450.08 346.383 449.933C346.494 449.784 346.653 449.652 346.859 449.536C347.067 449.417 347.349 449.358 347.704 449.358C348.163 449.358 348.568 449.473 348.918 449.703C349.269 449.932 349.542 450.258 349.739 450.679C349.935 451.101 350.034 451.598 350.034 452.171C350.034 452.748 349.935 453.249 349.739 453.673C349.542 454.094 349.27 454.421 348.922 454.653C348.574 454.882 348.173 454.997 347.718 454.997C347.368 454.997 347.087 454.939 346.877 454.823C346.666 454.705 346.504 454.571 346.39 454.422C346.276 454.271 346.189 454.145 346.127 454.046H346.028V454.884H345.218ZM346.042 452.156C346.042 452.568 346.102 452.932 346.223 453.247C346.344 453.559 346.52 453.804 346.752 453.982C346.984 454.157 347.268 454.244 347.605 454.244C347.955 454.244 348.247 454.152 348.482 453.967C348.718 453.78 348.896 453.53 349.014 453.215C349.135 452.897 349.195 452.545 349.195 452.156C349.195 451.773 349.136 451.427 349.018 451.119C348.902 450.809 348.726 450.564 348.489 450.384C348.254 450.202 347.96 450.111 347.605 450.111C347.264 450.111 346.977 450.197 346.745 450.37C346.513 450.541 346.338 450.78 346.22 451.088C346.101 451.393 346.042 451.749 346.042 452.156ZM353.602 454.997C353.077 454.997 352.624 454.881 352.242 454.649C351.864 454.415 351.571 454.088 351.365 453.669C351.162 453.248 351.06 452.758 351.06 452.199C351.06 451.64 351.162 451.148 351.365 450.722C351.571 450.293 351.858 449.959 352.225 449.72C352.594 449.479 353.025 449.358 353.517 449.358C353.801 449.358 354.082 449.405 354.359 449.5C354.636 449.595 354.888 449.749 355.115 449.962C355.342 450.172 355.524 450.452 355.659 450.8C355.793 451.148 355.861 451.576 355.861 452.085V452.44H351.656V451.716H355.009C355.009 451.408 354.947 451.134 354.824 450.892C354.703 450.651 354.53 450.46 354.306 450.32C354.083 450.181 353.82 450.111 353.517 450.111C353.183 450.111 352.895 450.194 352.651 450.36C352.409 450.523 352.223 450.736 352.093 450.999C351.963 451.262 351.898 451.543 351.898 451.844V452.327C351.898 452.739 351.969 453.088 352.111 453.374C352.255 453.659 352.455 453.875 352.711 454.024C352.967 454.171 353.264 454.244 353.602 454.244C353.823 454.244 354.021 454.214 354.199 454.152C354.379 454.088 354.534 453.994 354.664 453.868C354.794 453.74 354.895 453.582 354.966 453.392L355.776 453.619C355.691 453.894 355.547 454.136 355.346 454.344C355.145 454.55 354.896 454.711 354.6 454.827C354.304 454.94 353.972 454.997 353.602 454.997ZM360.999 450.651L360.247 450.864C360.199 450.738 360.129 450.616 360.037 450.498C359.947 450.377 359.824 450.278 359.668 450.2C359.512 450.122 359.311 450.083 359.068 450.083C358.734 450.083 358.456 450.159 358.233 450.313C358.013 450.465 357.903 450.658 357.903 450.892C357.903 451.101 357.979 451.265 358.13 451.386C358.282 451.507 358.518 451.607 358.84 451.688L359.65 451.887C360.138 452.005 360.501 452.186 360.74 452.43C360.979 452.671 361.099 452.983 361.099 453.364C361.099 453.676 361.009 453.956 360.829 454.202C360.651 454.448 360.403 454.642 360.083 454.784C359.764 454.926 359.392 454.997 358.968 454.997C358.412 454.997 357.951 454.877 357.587 454.635C357.222 454.394 356.991 454.041 356.894 453.577L357.69 453.378C357.766 453.672 357.909 453.892 358.119 454.038C358.333 454.185 358.611 454.259 358.954 454.259C359.345 454.259 359.655 454.176 359.884 454.01C360.116 453.842 360.232 453.641 360.232 453.406C360.232 453.217 360.166 453.058 360.034 452.931C359.901 452.8 359.697 452.703 359.423 452.639L358.514 452.426C358.014 452.308 357.647 452.124 357.413 451.876C357.181 451.625 357.065 451.311 357.065 450.935C357.065 450.627 357.151 450.355 357.324 450.118C357.499 449.881 357.737 449.695 358.038 449.561C358.341 449.426 358.684 449.358 359.068 449.358C359.607 449.358 360.031 449.476 360.339 449.713C360.649 449.95 360.869 450.262 360.999 450.651ZM364.733 449.429V450.139H361.906V449.429H364.733ZM362.73 448.122H363.568V453.321C363.568 453.558 363.602 453.735 363.671 453.854C363.742 453.97 363.832 454.048 363.941 454.088C364.052 454.126 364.169 454.145 364.292 454.145C364.385 454.145 364.46 454.14 364.52 454.131C364.579 454.119 364.626 454.11 364.662 454.102L364.832 454.855C364.775 454.877 364.696 454.898 364.594 454.919C364.492 454.943 364.363 454.955 364.207 454.955C363.97 454.955 363.738 454.904 363.511 454.802C363.286 454.7 363.099 454.545 362.95 454.337C362.803 454.128 362.73 453.866 362.73 453.548V448.122ZM367.669 447.27V456.361H365.567V455.665H366.874V447.966H365.567V447.27H367.669ZM303.808 468.361V459.27H305.91V459.966H304.603V467.665H305.91V468.361H303.808ZM307.431 468.361V459.27H309.533V459.966H308.226V467.665H309.533V468.361H307.431ZM312.318 459.27V468.361H310.216V467.665H311.522V459.966H310.216V459.27H312.318ZM315.941 459.27V468.361H313.839V467.665H315.145V459.966H313.839V459.27H315.941Z" fill="black"/>
</g>
<defs>
<filter id="filter0_f_15_944" x="-5.92846" y="83.2313" width="1437.39" height="700.743" filterUnits="userSpaceOnUse" color-interpolation-filters="sRGB">
<feFlood flood-opacity="0" result="BackgroundImageFix"/>
<feBlend mode="normal" in="SourceGraphic" in2="BackgroundImageFix" result="shape"/>
<feGaussianBlur stdDeviation="5.46423" result="effect1_foregroundBlur_15_944"/>
</filter>
<filter id="filter1_f_15_944" x="1185.77" y="553.729" width="254.763" height="152.253" filterUnits="userSpaceOnUse" color-interpolation-filters="sRGB">
<feFlood flood-opacity="0" result="BackgroundImageFix"/>
<feBlend mode="normal" in="SourceGraphic" in2="BackgroundImageFix" result="shape"/>
<feGaussianBlur stdDeviation="10" result="effect1_foregroundBlur_15_944"/>
</filter>
<filter id="filter2_f_15_944" x="-15" y="101.72" width="220" height="159.69" filterUnits="userSpaceOnUse" color-interpolation-filters="sRGB">
<feFlood flood-opacity="0" result="BackgroundImageFix"/>
<feBlend mode="normal" in="SourceGraphic" in2="BackgroundImageFix" result="shape"/>
<feGaussianBlur stdDeviation="10" result="effect1_foregroundBlur_15_944"/>
</filter>
<filter id="filter3_f_15_944" x="1215.98" y="94.2056" width="222.213" height="190.157" filterUnits="userSpaceOnUse" color-interpolation-filters="sRGB">
<feFlood flood-opacity="0" result="BackgroundImageFix"/>
<feBlend mode="normal" in="SourceGraphic" in2="BackgroundImageFix" result="shape"/>
<feGaussianBlur stdDeviation="10" result="effect1_foregroundBlur_15_944"/>
</filter>
<filter id="filter4_f_15_944" x="735.976" y="602.89" width="222.213" height="190.157" filterUnits="userSpaceOnUse" color-interpolation-filters="sRGB">
<feFlood flood-opacity="0" result="BackgroundImageFix"/>
<feBlend mode="normal" in="SourceGraphic" in2="BackgroundImageFix" result="shape"/>
<feGaussianBlur stdDeviation="10" result="effect1_foregroundBlur_15_944"/>
</filter>
<filter id="filter5_f_15_944" x="317.533" y="74.1597" width="57.0709" height="95.2444" filterUnits="userSpaceOnUse" color-interpolation-filters="sRGB">
<feFlood flood-opacity="0" result="BackgroundImageFix"/>
<feBlend mode="normal" in="SourceGraphic" in2="BackgroundImageFix" result="shape"/>
<feGaussianBlur stdDeviation="10" result="effect1_foregroundBlur_15_944"/>
</filter>
<filter id="filter6_f_15_944" x="377" y="530.382" width="290" height="291.763" filterUnits="userSpaceOnUse" color-interpolation-filters="sRGB">
<feFlood flood-opacity="0" result="BackgroundImageFix"/>
<feBlend mode="normal" in="SourceGraphic" in2="BackgroundImageFix" result="shape"/>
<feGaussianBlur stdDeviation="50" result="effect1_foregroundBlur_15_944"/>
</filter>
<filter id="filter7_f_15_944" x="320" y="-98.2503" width="600" height="598.487" filterUnits="userSpaceOnUse" color-interpolation-filters="sRGB">
<feFlood flood-opacity="0" result="BackgroundImageFix"/>
<feBlend mode="normal" in="SourceGraphic" in2="BackgroundImageFix" result="shape"/>
<feGaussianBlur stdDeviation="100" result="effect1_foregroundBlur_15_944"/>
</filter>
<filter id="filter8_f_15_944" x="239.208" y="539.624" width="74.1418" height="79.9641" filterUnits="userSpaceOnUse" color-interpolation-filters="sRGB">
<feFlood flood-opacity="0" result="BackgroundImageFix"/>
<feBlend mode="normal" in="SourceGraphic" in2="BackgroundImageFix" result="shape"/>
<feGaussianBlur stdDeviation="10" result="effect1_foregroundBlur_15_944"/>
</filter>
</defs>
</svg>
