<svg width="118" height="254" viewBox="0 0 118 254" fill="none" xmlns="http://www.w3.org/2000/svg">
<ellipse cx="115.394" cy="251.59" rx="2.36973" ry="1.87313" transform="rotate(-180 115.394 251.59)" fill="#679FD2"/>
<ellipse cx="80.6379" cy="251.59" rx="2.36973" ry="1.87313" transform="rotate(-180 80.6379 251.59)" fill="#679FD2"/>
<ellipse cx="45.8819" cy="251.59" rx="2.36973" ry="1.87313" transform="rotate(-180 45.8819 251.59)" fill="#679FD2"/>
<ellipse cx="11.1258" cy="251.59" rx="2.36973" ry="1.87313" transform="rotate(-180 11.1258 251.59)" fill="#679FD2"/>
<ellipse cx="115.394" cy="223.844" rx="2.36973" ry="1.87313" transform="rotate(-180 115.394 223.844)" fill="#679FD2"/>
<ellipse cx="80.6379" cy="223.844" rx="2.36973" ry="1.87313" transform="rotate(-180 80.6379 223.844)" fill="#679FD2"/>
<ellipse cx="45.8819" cy="223.844" rx="2.36973" ry="1.87313" transform="rotate(-180 45.8819 223.844)" fill="#679FD2"/>
<ellipse cx="11.1258" cy="223.844" rx="2.36973" ry="1.87313" transform="rotate(-180 11.1258 223.844)" fill="#679FD2"/>
<ellipse cx="115.394" cy="196.097" rx="2.36973" ry="1.87313" transform="rotate(-180 115.394 196.097)" fill="#679FD2"/>
<ellipse cx="80.6379" cy="196.097" rx="2.36973" ry="1.87313" transform="rotate(-180 80.6379 196.097)" fill="#679FD2"/>
<ellipse cx="45.8819" cy="196.097" rx="2.36973" ry="1.87313" transform="rotate(-180 45.8819 196.097)" fill="#679FD2"/>
<ellipse cx="11.1258" cy="196.097" rx="2.36973" ry="1.87313" transform="rotate(-180 11.1258 196.097)" fill="#679FD2"/>
<ellipse cx="115.394" cy="168.351" rx="2.36973" ry="1.87313" transform="rotate(-180 115.394 168.351)" fill="#679FD2"/>
<ellipse cx="80.6379" cy="168.351" rx="2.36973" ry="1.87313" transform="rotate(-180 80.6379 168.351)" fill="#679FD2"/>
<ellipse cx="45.8819" cy="168.351" rx="2.36973" ry="1.87313" transform="rotate(-180 45.8819 168.351)" fill="#679FD2"/>
<ellipse cx="11.1258" cy="168.351" rx="2.36973" ry="1.87313" transform="rotate(-180 11.1258 168.351)" fill="#679FD2"/>
<ellipse cx="115.394" cy="140.605" rx="2.36973" ry="1.87313" transform="rotate(-180 115.394 140.605)" fill="#679FD2"/>
<ellipse cx="80.6379" cy="140.605" rx="2.36973" ry="1.87313" transform="rotate(-180 80.6379 140.605)" fill="#679FD2"/>
<ellipse cx="45.8819" cy="140.605" rx="2.36973" ry="1.87313" transform="rotate(-180 45.8819 140.605)" fill="#679FD2"/>
<ellipse cx="11.1258" cy="140.605" rx="2.36973" ry="1.87313" transform="rotate(-180 11.1258 140.605)" fill="#679FD2"/>
<ellipse cx="115.394" cy="112.858" rx="2.36973" ry="1.87313" transform="rotate(-180 115.394 112.858)" fill="#679FD2"/>
<ellipse cx="80.6379" cy="112.858" rx="2.36973" ry="1.87313" transform="rotate(-180 80.6379 112.858)" fill="#679FD2"/>
<ellipse cx="45.8819" cy="112.858" rx="2.36973" ry="1.87313" transform="rotate(-180 45.8819 112.858)" fill="#679FD2"/>
<ellipse cx="11.1258" cy="112.858" rx="2.36973" ry="1.87313" transform="rotate(-180 11.1258 112.858)" fill="#679FD2"/>
<ellipse cx="115.394" cy="85.112" rx="2.36973" ry="1.87313" transform="rotate(-180 115.394 85.112)" fill="#679FD2"/>
<ellipse cx="80.6379" cy="85.112" rx="2.36973" ry="1.87313" transform="rotate(-180 80.6379 85.112)" fill="#679FD2"/>
<ellipse cx="45.8819" cy="85.112" rx="2.36973" ry="1.87313" transform="rotate(-180 45.8819 85.112)" fill="#679FD2"/>
<ellipse cx="11.1258" cy="85.112" rx="2.36973" ry="1.87313" transform="rotate(-180 11.1258 85.112)" fill="#679FD2"/>
<ellipse cx="115.394" cy="57.3655" rx="2.36973" ry="1.87313" transform="rotate(-180 115.394 57.3655)" fill="#679FD2"/>
<ellipse cx="80.6379" cy="57.3655" rx="2.36973" ry="1.87313" transform="rotate(-180 80.6379 57.3655)" fill="#679FD2"/>
<ellipse cx="45.8819" cy="57.3655" rx="2.36973" ry="1.87313" transform="rotate(-180 45.8819 57.3655)" fill="#679FD2"/>
<ellipse cx="11.1258" cy="57.3655" rx="2.36973" ry="1.87313" transform="rotate(-180 11.1258 57.3655)" fill="#679FD2"/>
<ellipse cx="115.394" cy="29.6193" rx="2.36973" ry="1.87313" transform="rotate(-180 115.394 29.6193)" fill="#679FD2"/>
<ellipse cx="80.638" cy="29.6193" rx="2.36973" ry="1.87313" transform="rotate(-180 80.638 29.6193)" fill="#679FD2"/>
<ellipse cx="45.8819" cy="29.6193" rx="2.36973" ry="1.87313" transform="rotate(-180 45.8819 29.6193)" fill="#679FD2"/>
<ellipse cx="11.1258" cy="29.6193" rx="2.36973" ry="1.87313" transform="rotate(-180 11.1258 29.6193)" fill="#679FD2"/>
<ellipse cx="115.394" cy="1.87308" rx="2.36973" ry="1.87313" transform="rotate(-180 115.394 1.87308)" fill="#679FD2"/>
<ellipse cx="80.6379" cy="1.87308" rx="2.36973" ry="1.87313" transform="rotate(-180 80.6379 1.87308)" fill="#679FD2"/>
<ellipse cx="45.8819" cy="1.87308" rx="2.36973" ry="1.87313" transform="rotate(-180 45.8819 1.87308)" fill="#679FD2"/>
<ellipse cx="11.1258" cy="1.87308" rx="2.36973" ry="1.87313" transform="rotate(-180 11.1258 1.87308)" fill="#679FD2"/>
</svg>
