<svg width="40" height="41" viewBox="0 0 40 41" fill="none" xmlns="http://www.w3.org/2000/svg">
<path d="M22.0405 7.04122L23.5834 5.50376C26.6132 2.4846 31.5457 2.40987 34.5929 5.41164C35.7475 6.55159 36.5149 8.02333 36.7871 9.62014C37.0593 11.217 36.8226 12.8586 36.1104 14.3145C35.7688 15.01 35.6537 15.7944 35.7811 16.5583C35.9086 17.3221 36.2723 18.0272 36.8214 18.575C37.8312 17.5665 38.6315 16.3695 39.1769 15.0526C39.7222 13.7357 40.002 12.3247 40 10.9C39.9978 9.47541 39.7143 8.06513 39.1652 6.74978C38.616 5.43441 37.8122 4.23975 36.7996 3.23405C32.5386 -0.988067 25.6222 -0.904048 21.3732 3.32993L6.66705 17.9841L5.45808 16.7794C2.37691 13.709 2.35727 8.69017 5.49279 5.67437C6.65342 4.5615 8.13209 3.83502 9.72471 3.59522C11.3173 3.35541 12.9454 3.61411 14.3841 4.33559C15.0408 4.67094 15.7871 4.7909 16.5163 4.67835C17.2455 4.56581 17.9204 4.22651 18.4445 3.70891L18.482 3.67174C18.4937 3.6602 18.503 3.64646 18.5093 3.63131C18.5156 3.61619 18.5188 3.59996 18.5188 3.58357C18.5188 3.56718 18.5156 3.55095 18.5093 3.53583C18.503 3.52071 18.4937 3.50697 18.482 3.4954C16.458 1.52908 13.7456 0.424597 10.9188 0.415667C8.09205 0.406739 5.37267 1.49406 3.33612 3.44756C-1.05084 7.6677 -1.03516 14.6854 3.2766 18.982L17.9783 33.6323L16.4166 35.1885C13.3868 38.2077 8.45413 38.2824 5.40709 35.2806C4.25245 34.1407 3.48515 32.6689 3.21294 31.0721C2.94075 29.4754 3.17731 27.8337 3.88942 26.3777C4.23107 25.6822 4.34621 24.8978 4.21879 24.1341C4.09134 23.3702 3.72768 22.6651 3.1786 22.1173C2.16886 23.1259 1.36844 24.3227 0.823048 25.6395C0.277654 26.9566 -0.00201563 28.3675 1.09353e-05 29.7923C0.00203751 31.2169 0.28572 32.6272 0.83486 33.9424C1.384 35.2579 2.18783 36.4525 3.20042 37.4582C7.4612 41.6805 14.3778 41.5967 18.6269 37.3625L33.352 22.6888L34.5656 23.8981C37.5953 26.9172 37.6703 31.8325 34.658 34.8688C33.5141 36.0196 32.0371 36.7841 30.4347 37.0555C28.8323 37.3267 27.1849 37.0909 25.7238 36.3812C25.0257 36.0406 24.2381 35.9257 23.4713 36.053C22.7045 36.1801 21.9967 36.5429 21.447 37.0905C22.4591 38.0968 23.6602 38.8944 24.9816 39.4379C26.3033 39.9814 27.7192 40.2601 29.149 40.2581C30.5786 40.256 31.9938 39.9733 33.3137 39.426C34.6338 38.8788 35.8327 38.0778 36.8419 37.0688C41.079 32.8229 40.9947 25.9306 36.7458 21.6966L22.0405 7.04122ZM20.1737 31.4436L8.86301 20.1726L19.8444 9.22987L31.1551 20.5009L20.1737 31.4436Z" fill="#679FD2"/>
</svg>
